<?xml version="1.0" encoding="utf-8"?>
<svg xmlns="http://www.w3.org/2000/svg" viewBox="205.5014 119.7095 149.2 125.6" width="149.2px" height="125.6px">
    <g transform="matrix(0.9999999999999999, 0, 0, 0.9999999999999999, 20.912548065185547, -18.377693176269517)">
        <g id="Face" transform="matrix(1, 0, 0, 1, 184.588867, 138.087204)">
            <path class="st0" d="M74.8,125.6c-27.6,0-50-22.4-50-50L74.8,125.6z" style="stroke: rgb(255, 255, 255);"/>
            <path class="st1" d="M74.8,125.6l-50-50c0-12.9,4.9-24.6,12.9-33.5L74.8,125.6z" style="stroke: rgb(255, 255, 255);"/>
            <path class="st2" d="M111.9,42l-37.1,83.5L37.7,42v0c9.2-10.1,22.4-16.5,37.1-16.5C89.5,25.6,102.8,31.9,111.9,42z" style="stroke: rgb(255, 255, 255);"/>
            <path class="st1" d="M124.8,75.5L124.8,75.5l-50,50L111.9,42C119.9,50.9,124.8,62.7,124.8,75.5z" style="stroke: rgb(255, 255, 255);"/>
            <path class="st0" d="M124.8,75.6c0,27.6-22.4,50-50,50L124.8,75.6z" style="stroke: rgb(255, 255, 255);"/>
        </g>
        <g id="Ears" transform="matrix(1, 0, 0, 1, 184.588867, 138.087204)">
            <title>Asset 3</title>
            <polygon class="st3" points="47.8,16.9 15.3,37.7 5.9,0 &#9;" style="stroke: rgb(255, 255, 255);"/>
            <path class="st6" d="M134,37.8l-4.4,17.9l-4.8,19.8c0-12.9-4.9-24.6-12.9-33.5c-9.1-10.1-22.4-16.5-37.1-16.5 c-14.7,0-28,6.4-37.1,16.5v0c-8,8.9-12.9,20.6-12.9,33.5l-5-19.8l-4.5-18l32.5-20.8h53.6L134,37.8z" style="stroke: rgb(255, 255, 255);"/>
            <polygon class="st3" points="143.3,0 134,37.8 101.3,16.9 &#9;" style="stroke: rgb(255, 255, 255);"/>
            <polygon class="st2" points="149.2,52.4 129.7,55.7 134,37.8 143.3,0 &#9;" style="stroke: rgb(255, 255, 255);"/>
            <polygon class="st2" points="19.8,55.7 0,52.4 5.9,0 15.3,37.7 &#9;" style="stroke: rgb(255, 255, 255);"/>
            <polygon class="st1" points="149.2,52.4 124.8,75.5 129.7,55.7 &#9;" style="stroke: rgb(255, 255, 255);"/>
            <polygon class="st1" points="24.8,75.6 0,52.4 19.8,55.7 &#9;" style="stroke: rgb(255, 255, 255);"/>
        </g>
    </g>
    <g id="Nose" transform="matrix(0.9999999999999999, 0, 0, 0.9999999999999999, 205.50141525268555, 119.70951080322266)">
        <g>
            <path class="st3" d="M74.8,98.3c-5.2,0-9.6-5.4-11.6-13.2L74.8,98.3z" style="fill: rgb(255, 255, 255); stroke: rgb(255, 255, 255);"/>
            <path class="st3" d="M86.4,85.1c-2,7.8-6.5,13.2-11.6,13.2L86.4,85.1z" style="fill: rgb(255, 255, 255); stroke: rgb(255, 255, 255);"/>
            <path class="st4" d="M87.6,75.5c0,3.4-0.4,6.7-1.2,9.6L74.8,98.3L63.2,85.1C62.4,82.2,62,79,62,75.5c0-12.6,5.7-22.8,12.8-22.8 C81.9,52.8,87.6,63,87.6,75.5z" style="fill: rgb(255, 255, 255); stroke: rgb(255, 255, 255);"/>
        </g>
        <line class="st5" x1="63.2" y1="85.1" x2="63.2" y2="85.1" style="fill: rgb(255, 255, 255); stroke: rgb(255, 255, 255);"/>
    </g>
    <defs id="Nose" transform="matrix(0.9999999999999999, 0, 0, 0.9999999999999999, 205.50141525268555, 119.70951080322266)">
        <mask id="hole">
                <g>
                    <path class="st3" d="M74.8,98.3c-5.2,0-9.6-5.4-11.6-13.2L74.8,98.3z" style="fill: rgb(255, 255, 255); stroke: rgb(255, 255, 255);"/>
                    <path class="st3" d="M86.4,85.1c-2,7.8-6.5,13.2-11.6,13.2L86.4,85.1z" style="fill: rgb(255, 255, 255); stroke: rgb(255, 255, 255);"/>
                    <path class="st4" d="M87.6,75.5c0,3.4-0.4,6.7-1.2,9.6L74.8,98.3L63.2,85.1C62.4,82.2,62,79,62,75.5c0-12.6,5.7-22.8,12.8-22.8 C81.9,52.8,87.6,63,87.6,75.5z" style="fill: rgb(255, 255, 255); stroke: rgb(255, 255, 255);"/>
                </g>
                <line class="st5" x1="63.2" y1="85.1" x2="63.2" y2="85.1" style="fill: rgb(255, 255, 255); stroke: rgb(255, 255, 255);"/>
        </mask>
    </defs>
</svg>